<?xml version="1.0" encoding="UTF-8" standalone="no"?>
<!-- Created with Inkscape (http://www.inkscape.org/) -->

<svg
   version="1.1"
   id="svg1"
   width="415"
   height="166"
   viewBox="0 0 415 166"
   xmlns="http://www.w3.org/2000/svg"
   xmlns:svg="http://www.w3.org/2000/svg"
   xmlns:rdf="http://www.w3.org/1999/02/22-rdf-syntax-ns#"
   xmlns:cc="http://creativecommons.org/ns#"
   xmlns:dc="http://purl.org/dc/elements/1.1/">
  <title
     id="title1">Original Logo Transparent</title>
  <defs
     id="defs1" />
  <g
     id="g1">
    <path
       style="fill:#000000;stroke-width:0.993285"
       d="m 115.94916,149.03118 c -4.80706,-2.26838 -5.17972,-2.69682 -5.17972,-5.95505 0,-3.98214 1.96012,-5.58119 6.84144,-5.58119 3.43723,0 6.97116,3.01795 6.97116,5.95332 0,1.07432 -1.05683,2.76129 -2.3485,3.74883 l -2.34851,1.79551 2.59516,1.16995 c 2.17914,0.9824 2.27883,1.18141 0.62193,1.2414 -1.08527,0.0393 -4.3041,-1.02845 -7.15296,-2.37277 z m 5.09904,-2.14323 c 2.57467,-1.00139 1.9965,-6.23459 -0.83317,-7.54136 -2.94713,-1.36102 -7.03999,-0.43608 -7.87922,1.78062 -1.52833,4.03678 3.90612,7.6301 8.71239,5.76074 z m -57.125644,0.35699 c -0.22771,-0.6875 -0.546762,-4.08237 -0.708991,-7.54416 l -0.294968,-6.29416 5.324257,0.29416 c 6.229073,0.34415 8.63145,2.57769 5.828379,5.41878 -1.499063,1.5194 -1.50667,1.86826 -0.0886,4.0619 0.853234,1.31985 2.708652,3.03731 4.123172,3.81657 2.285947,1.25934 2.346585,1.42129 0.545489,1.45687 -1.11449,0.022 -3.532456,-1.53496 -5.373262,-3.45996 -1.840816,-1.925 -4.196369,-3.5 -5.234565,-3.5 -1.576334,0 -1.821143,0.57719 -1.48449,3.5 0.28232,2.45111 0.0099,3.5 -0.909639,3.5 -0.722025,0 -1.499083,-0.5625 -1.726803,-1.25 z m 7.79488,-7.35699 c 2.018614,-0.78513 2.018614,-4.00089 0,-4.78602 -2.719239,-1.05763 -5.388013,-0.65879 -5.975522,0.89301 -1.347973,3.56042 1.709409,5.55228 5.975522,3.89301 z m 10.604581,7.82363 c 0.180886,-0.43084 1.216832,-2.90416 2.302108,-5.49625 1.798668,-4.29598 3.453152,-6.1152 3.453152,-3.79699 0,0.50788 1.55098,2.98288 3.446632,5.5 3.422401,4.54441 3.427101,6.40759 0.0069,2.5766 -0.982165,-1.1 -2.868446,-2 -4.191743,-2 -1.576235,0 -2.583944,0.68973 -2.921998,2 -0.28381,1.1 -0.945207,2 -1.46977,2 -0.524573,0 -0.805778,-0.35251 -0.624892,-0.78336 z m 5.75526,-6.21664 c 0,-0.55 -0.443976,-1 -0.986615,-1 -0.542638,0 -0.986615,0.45 -0.986615,1 0,0.55 0.443977,1 0.986615,1 0.542639,0 0.986615,-0.45 0.986615,-1 z m 11.072303,5.4433 c -4.74766,-3.3705 -1.25805,-9.4433 5.42639,-9.4433 1.77849,0 3.23362,0.49878 3.23362,1.10841 0,0.68536 -0.94912,0.86696 -2.48678,0.4758 -3.72128,-0.94666 -6.57383,0.99928 -6.20524,4.23305 0.28408,2.49231 0.64004,2.68274 5.01484,2.68274 4.01142,0 4.4585,0.18518 3.01793,1.25 -2.2871,1.69052 -5.35304,1.57299 -8.00076,-0.3067 z m 29.48453,0.62515 c -1.94526,-1.2218 -3.20095,-10.06845 -1.42911,-10.06845 0.90787,0 1.3235,1.392 1.3235,4.43261 0,4.81627 1.85856,6.37383 6.01144,5.03788 1.76102,-0.56651 2.01411,-1.31239 1.71946,-5.06739 -0.23907,-3.04684 0.0351,-4.4031 0.8902,-4.4031 0.84924,0 1.19809,1.65383 1.11543,5.28803 l -0.12028,5.28803 -4.06816,0.17779 c -2.23749,0.0978 -4.6866,-0.21065 -5.44248,-0.6854 z m 13.707,-2.98666 c 0,-2.15502 -0.26948,-4.63002 -0.59886,-5.5 -0.48618,-1.28415 0.16359,-1.58179 3.45315,-1.58179 2.22862,0 4.05202,0.35524 4.05202,0.78942 0,0.43418 -1.1776,0.77168 -2.61688,0.75 -1.43928,-0.0217 -2.80821,0.52308 -3.04207,1.21058 -0.26825,0.78863 0.51556,1.25 2.12358,1.25 1.40181,0 2.54875,0.46973 2.54875,1.04384 0,0.57411 -0.55497,0.97079 -1.23327,0.88151 -2.59634,-0.34172 -3.6998,0.12791 -3.6998,1.57465 0,1.05236 1.04789,1.5 3.51138,1.5 2.08968,0 3.26449,0.40488 2.90162,1 -0.33537,0.55 -2.13749,1 -4.00469,1 -3.29119,0 -3.39493,-0.11972 -3.39493,-3.91821 z m 15.45697,3.25154 c -0.36176,-0.36666 -0.65774,-2.39166 -0.65774,-4.5 0,-3.44579 -0.25525,-3.83333 -2.52477,-3.83333 -1.43193,0 -2.26083,-0.43284 -1.915,-1 0.33537,-0.55 3.02543,-1 5.97792,-1 2.95248,0 5.36815,0.45 5.36815,1 0,0.55 -1.15464,1 -2.56588,1 -2.43561,0 -2.54796,0.22846 -2.21278,4.5 0.33801,4.30743 -0.0371,5.28559 -1.4699,3.83333 z m 18.12127,-1.02222 c -2.43815,-1.73092 -2.50609,-2.66194 -0.35346,-4.84379 1.38129,-1.40002 1.4482,-2.0081 0.40689,-3.69812 -1.01242,-1.64313 -0.99864,-2.26788 0.0735,-3.33009 2.41804,-2.39572 6.21021,-2.69949 8.65461,-0.69328 2.08932,1.71478 2.14665,2.00111 0.6952,3.47224 -0.87005,0.88185 -2.14479,1.83529 -2.83278,2.11876 -0.85333,0.35159 -0.46697,1.16745 1.21565,2.56705 2.9524,2.45578 3.94646,2.60594 3.94646,0.59612 0,-0.825 -0.69217,-1.5 -1.53815,-1.5 -0.84599,0 -1.26376,-0.45 -0.92839,-1 0.33537,-0.55 2.60765,-1 5.04953,-1 2.70861,0 4.20201,0.38992 3.83001,1 -0.33537,0.55 -1.69351,1 -3.01808,1 -3.58892,0 -3.39152,4.50115 0.25138,5.73192 2.02421,0.68389 0.73563,0.91115 -5.39304,0.95115 -5.44447,0.0355 -8.70267,-0.40884 -10.05931,-1.37196 z m 8.8462,-1.0955 c 0,-0.43142 -1.37196,-1.60583 -3.04882,-2.60981 -3.29904,-1.97523 -5.59964,-1.04383 -4.51276,1.82698 0.61015,1.6116 7.56158,2.33126 7.56158,0.78283 z m -2.17055,-7.41561 c 2.08962,-2.11797 1.32932,-3.8 -1.71767,-3.8 -3.40518,0 -4.66151,1.49292 -2.98222,3.5438 1.44907,1.76971 3.11695,1.86062 4.69989,0.2562 z m 24.53383,9.53333 c -0.36176,-0.36666 -0.65775,-3.47916 -0.65775,-6.91666 0,-4.06433 -0.43128,-6.42639 -1.23327,-6.75439 -0.67829,-0.27741 -0.23432,-0.53991 0.98662,-0.58333 1.82611,-0.0649 2.21988,0.45321 2.21988,2.92105 0,2.97705 0.0423,3 5.53837,3 h 5.53836 l -0.43442,-3 c -0.29644,-2.04719 -0.0186,-3 0.87464,-3 0.93086,0 1.30905,1.60798 1.30905,5.56574 0,3.06116 0.48081,6.47635 1.06848,7.58931 0.90613,1.71608 0.79368,1.97074 -0.73996,1.67594 -1.30354,-0.25057 -1.89476,-1.40626 -2.1176,-4.13937 l -0.30916,-3.79175 -5.11722,0.30007 c -4.4872,0.26312 -5.15692,0.58386 -5.43962,2.6051 -0.17731,1.26778 0.21003,2.95528 0.86077,3.75 0.93951,1.14741 0.88739,1.44496 -0.25314,1.44496 -0.78996,0 -1.73228,-0.3 -2.09403,-0.66667 z m 20.60474,-0.58333 c -0.2096,-0.6875 -0.5974,-3.1625 -0.86177,-5.5 l -0.48066,-4.25 h 3.85259 c 2.11891,0 3.85257,0.35524 3.85257,0.78942 0,0.43418 -1.17759,0.77168 -2.61688,0.75 -1.43928,-0.0217 -2.80821,0.52308 -3.04207,1.21058 -0.26656,0.78369 0.50391,1.25 2.06535,1.25 1.36979,0 2.80815,0.52089 3.19634,1.15752 0.47822,0.78427 0.0549,0.98502 -1.31247,0.62257 -1.11006,-0.29422 -2.5683,-0.19042 -3.24053,0.23067 -1.95545,1.22494 -0.12962,2.98924 3.09348,2.98924 1.722,0 2.70484,0.41821 2.35009,1 -0.87607,1.43674 -6.40322,1.2352 -6.85604,-0.25 z m 9.32258,0.85207 c 0,-0.21886 1.08316,-2.33074 2.40703,-4.69307 1.32387,-2.36233 2.15002,-4.71665 1.83589,-5.23181 -0.31412,-0.51516 -0.10436,-0.76577 0.46614,-0.55692 1.45844,0.53391 8.18335,10.87973 7.07196,10.87973 -0.50135,0 -1.46607,-0.9 -2.14384,-2 -2.13418,-3.46371 -7.37818,-2.49891 -6.79417,1.25 0.0642,0.4125 -0.54913,0.75 -1.36309,0.75 -0.81396,0 -1.47992,-0.17907 -1.47992,-0.39793 z m 6.36091,-6.68748 c -0.31766,-0.52097 -0.99811,-0.68378 -1.51211,-0.3618 -0.51399,0.32197 -0.67462,1.01165 -0.35695,1.53262 0.31766,0.52097 0.9981,0.68378 1.5121,0.3618 0.514,-0.32197 0.67463,-1.01165 0.35696,-1.53262 z m 10.40068,5.33541 c -0.006,-0.9625 -0.28605,-3.4375 -0.6224,-5.5 -0.39041,-2.39404 -0.22766,-3.75 0.45011,-3.75 0.5839,0 1.19696,2.1375 1.36236,4.75 0.29523,4.66333 0.35914,4.74732 3.50259,4.60306 1.76104,-0.0808 2.95577,0.25668 2.65497,0.75 -0.30081,0.49332 -2.07464,0.89694 -3.94185,0.89694 -2.57137,0 -3.39756,-0.42452 -3.40578,-1.75 z m 15.46783,1.08333 c -0.36176,-0.36666 -0.65775,-2.39166 -0.65775,-4.5 0,-3.44579 -0.25524,-3.83333 -2.52476,-3.83333 -1.43194,0 -2.26083,-0.43284 -1.915,-1 0.33537,-0.55 3.02543,-1 5.97792,-1 2.95248,0 5.36815,0.45 5.36815,1 0,0.55 -1.15465,1 -2.56588,1 -2.43562,0 -2.54796,0.22846 -2.21278,4.5 0.338,4.30743 -0.0371,5.28559 -1.4699,3.83333 z m 9.78929,-0.18969 c -0.28719,-0.471 -0.33401,-1.84667 -0.10404,-3.05703 0.22998,-1.21037 0.006,-3.30001 -0.49824,-4.64364 -0.71511,-1.90638 -0.59668,-2.44297 0.53912,-2.44297 0.80053,0 1.4555,0.9 1.4555,2 0,1.66667 0.65775,2 3.94646,2 4.07929,0 4.80216,-0.73269 2.76252,-2.8 -0.92083,-0.93333 -0.83151,-1.2 0.402,-1.2 1.2237,0 1.66313,1.25656 1.9239,5.50136 0.18588,3.02575 0.005,5.50075 -0.402,5.5 -0.40698,-7.5e-4 -0.73996,-1.12636 -0.73996,-2.50136 0,-1.375 -0.44398,-2.545 -0.98661,-2.6 -5.612,-0.56881 -6.41288,-0.26562 -6.37411,2.41306 0.0382,2.63678 -0.89292,3.52241 -1.92454,1.83058 z m 26.0741,-0.42964 c -5.20304,-2.66827 -4.87132,-10.65302 0.52903,-12.73408 3.90012,-1.50294 11.29396,-1.25341 11.29396,0.38115 0,1.10247 -0.76081,1.15524 -4.00435,0.27775 -5.38331,-1.45639 -9.18244,0.55022 -9.61958,5.08082 -0.44582,4.62039 3.10466,6.74653 9.95509,5.96144 4.81166,-0.55144 4.98728,-0.49716 2.68223,0.82899 -3.07139,1.76705 -7.62139,1.85268 -10.83638,0.20393 z m 16.29434,0.036 c -1.08425,-3.39 -0.99622,-9.75 0.13494,-9.75 0.73794,0 1.32189,1.84182 1.506,4.75 0.29523,4.66333 0.35914,4.74732 3.50259,4.60306 1.76104,-0.0808 2.95577,0.25668 2.65497,0.75 -0.8323,1.36495 -7.34329,1.07018 -7.7985,-0.35306 z m 13.03421,-0.0283 c -1.97262,-1.56391 -2.80686,-9.7217 -0.99417,-9.7217 0.92509,0 1.10335,1.06265 0.65499,3.90458 -0.52853,3.35005 -0.30695,4.07223 1.56016,5.08503 1.19689,0.64925 3.24476,0.90861 4.55081,0.57637 2.00033,-0.50886 2.37464,-1.21845 2.37464,-4.5017 0,-2.18242 -0.54272,-4.11957 -1.23327,-4.402 -0.73674,-0.30132 -0.53814,-0.53617 0.49331,-0.58333 1.36384,-0.0624 1.72658,0.74422 1.72658,3.83926 0,2.15502 0.23227,4.5317 0.51614,5.28151 0.68308,1.80421 -7.47525,2.24557 -9.64919,0.52201 z m 14.06612,-2.63991 c 0,-2.15502 -0.26948,-4.63002 -0.59886,-5.5 -0.47675,-1.25922 0.11498,-1.58179 2.90161,-1.58179 3.27116,0 4.93205,1.13378 5.12717,3.5 0.0454,0.55 0.46221,1.85257 0.92634,2.89461 1.06349,2.38763 -1.62601,4.60539 -5.58499,4.60539 -2.56577,0 -2.77127,-0.29056 -2.77127,-3.91821 z m 5.34569,2.31122 c 2.74923,-1.06929 1.79096,-3.39301 -1.39923,-3.39301 -1.80879,0 -2.95984,0.51852 -2.95984,1.33333 0,2.46677 1.49556,3.17342 4.35907,2.05968 z m 0.574,-6.54103 c 0,-1.44846 -2.98673,-2.22473 -4.12414,-1.07189 -0.5674,0.5751 -0.75911,1.49261 -0.426,2.0389 0.71585,1.17398 4.55014,0.35911 4.55014,-0.96701 z M 62.188403,123.98811 c 3.396856,-1.325 9.338902,-4.48284 13.204548,-7.01744 5.266462,-3.45308 7.304532,-4.31954 8.129796,-3.45628 0.819088,0.85679 -0.0366,2.15462 -3.338389,5.0636 -2.441872,2.15135 -3.969329,3.91276 -3.39434,3.91425 0.574979,0.001 4.792758,-0.95271 9.372842,-2.12044 9.64172,-2.45823 15.26746,-5.19564 22.05636,-10.73236 2.66717,-2.17522 5.46119,-3.717 6.20894,-3.42617 3.24997,1.26405 -8.18266,9.97487 -18.6869,14.23803 -10.241623,4.15658 -19.941152,6.05262 -30.667284,5.99476 l -9.061684,-0.0489 z m -32.321406,-0.60595 c -5.899158,-0.99357 -9.588141,-3.20489 -11.73316,-7.03331 -1.195905,-2.13446 -1.159361,-2.90956 0.282389,-5.98906 3.119203,-6.66241 15.344378,-10.93312 30.689762,-10.72106 l 7.892919,0.10907 -8.525221,1.26 c -14.539043,2.14882 -19.36432,4.37093 -22.078005,10.16717 -1.594399,3.40554 -1.583102,3.67902 0.255889,6.19144 2.756839,3.76641 8.345657,5.42322 16.041421,4.75552 8.448186,-0.73299 12.243131,-1.9203 18.726139,-5.85875 9.95895,-6.05011 12.527454,-13.83697 7.048337,-21.368206 -1.560548,-2.14503 -4.501519,-5.47504 -6.535485,-7.40004 -10.378627,-9.82257 -12.124698,-16.906949 -5.890762,-23.900777 7.950567,-8.919725 29.006035,-14.080569 39.43224,-9.665123 6.73494,2.85221 5.19047,10.016276 -2.945769,13.664149 -4.81485,2.158732 -19.249638,3.798985 -19.249638,2.187374 0,-0.554316 2.591867,-1.246059 5.75971,-1.537205 6.496435,-0.597068 11.425407,-2.792914 13.01138,-5.796543 5.441677,-10.305793 -18.291526,-10.701113 -28.382958,-0.472771 -6.575167,6.664371 -5.726086,9.964685 5.665409,22.020894 8.07197,8.542992 9.866149,11.530002 9.866149,16.425548 0,2.79859 -3.778765,9.39447 -6.786372,11.84571 -10.858772,8.85001 -28.551441,13.47275 -42.544374,11.11597 z m 227.394083,-0.28099 c -9.11477,-2.89488 -12.50314,-7.67858 -10.4231,-14.71533 2.65316,-8.97562 16.30529,-17.606276 34.61584,-21.883606 5.15506,-1.20421 9.81682,-2.318007 10.35945,-2.475097 0.54264,-0.15709 -0.34531,-0.594145 -1.97323,-0.971232 -1.62791,-0.377087 -4.23301,-1.240347 -5.7891,-1.918355 -2.2653,-0.987022 -4.33024,-0.962631 -10.35945,0.122364 -4.70817,0.847265 -12.52177,1.229317 -20.84951,1.019453 -15.67703,-0.395071 -21.31594,-2.325196 -24.08737,-8.244788 -4.44627,-9.496933 7.1749,-18.235672 25.6465,-19.285325 9.52706,-0.541377 25.6554,1.263134 26.70723,2.988126 0.41375,0.678545 -0.52138,0.816269 -2.7184,0.400357 -21.55081,-4.07974 -36.34578,-1.702346 -41.36881,6.647532 -3.8225,6.354206 -1.75207,11.934279 5.4614,14.719121 7.90205,3.050681 37.01493,1.410434 36.12324,-2.035219 -1.19207,-4.606406 -1.13446,-6.094988 0.35941,-9.285798 3.02695,-6.465376 14.74629,-12.273629 28.0182,-13.886173 10.92457,-1.327343 16.2234,0.118075 16.72465,4.562158 0.63657,5.643823 -8.64763,11.923408 -24.50973,16.577724 -11.00998,3.230588 -10.8176,3.075701 -6.39841,5.151582 2.17055,1.019601 4.94541,1.865621 6.16634,1.880044 5.15125,0.06085 1.5327,1.824746 -7.85379,3.828406 -17.16352,3.66375 -31.34444,12.119066 -34.93542,20.830116 -1.92628,4.67278 -1.70631,6.79928 1.04629,10.11495 9.22628,11.11357 44.04236,2.83538 42.77756,-10.17119 -0.64974,-6.68183 -10.85335,-7.22059 -24.39184,-1.28792 -9.60899,4.21073 -10.74409,3.28823 -1.30817,-1.06316 9.20059,-4.24288 16.42869,-6.22498 22.70045,-6.22498 4.59632,0 5.7264,0.40866 8.27591,2.99276 2.24339,2.27383 2.79154,3.53502 2.28181,5.25001 -1.80708,6.07992 -13.03252,13.30826 -25.17078,16.20808 -7.62242,1.82099 -19.64872,1.89537 -25.12717,0.15539 z m 40.61461,-48.718901 c 12.99162,-4.058048 20.08288,-9.015302 20.08288,-14.039244 0,-3.470671 -2.36123,-4.848093 -8.31078,-4.848093 -12.21589,0 -25.8325,10.463082 -23.87968,18.349281 0.81975,3.310507 2.93132,3.404344 12.10758,0.538056 z M 86.844009,114.41484 c -2.103996,-1.24209 -2.270527,-5.95307 -0.343934,-9.72923 0.760453,-1.49052 3.31332,-4.10426 5.673036,-5.80832 8.592149,-6.204786 16.869459,-6.833086 18.730599,-1.421776 1.4863,4.321416 5.06611,5.460076 10.0535,3.197776 2.26497,-1.0274 4.96391,-2.833326 5.99763,-4.013176 1.2297,-1.40354 3.04526,-2.14518 5.25144,-2.14518 h 3.37194 l -6.97342,8.249996 c -7.33653,8.67957 -8.59832,11.38223 -4.76272,10.20133 3.49586,-1.07629 7.92923,-4.83161 14.06065,-11.91014 4.87867,-5.632266 6.12939,-6.541186 9.00105,-6.541186 h 3.3351 l -6.91881,8.578966 c -10.30971,12.78355 -7.10606,13.37564 7.13335,1.31839 7.21547,-6.10973 8.74772,-7.897356 6.76913,-7.897356 -0.58785,0 -1.06883,-0.45 -1.06883,-1 0,-0.55 1.05725,-1 2.34944,-1 1.50983,0 3.25856,-1.2081 4.89343,-3.38061 1.63683,-2.17511 3.61359,-3.53971 5.54348,-3.8268 3.52191,-0.52392 3.69039,0.0474 1.02626,3.48028 -2.65288,3.41834 -2.53026,3.72713 1.47992,3.72713 1.89924,0 3.45316,0.45 3.45316,1 0,0.55 -1.88691,1.00689 -4.19312,1.01531 -2.30621,0.008 -4.6663,0.34592 -5.24464,0.75 -2.64977,1.851356 -11.25145,14.664806 -10.41418,15.513436 1.92551,1.95163 9.09253,-2.07106 20.99009,-11.78129 1.34951,-1.10139 6.51569,-7.475126 11.48041,-14.163846 7.24033,-9.754494 9.63248,-12.296142 12.08727,-12.842619 1.68326,-0.374723 3.24986,-0.489369 3.48132,-0.254768 0.23146,0.2346 -2.8967,4.889922 -6.95146,10.34516 -4.05477,5.455237 -7.38373,10.232707 -7.3977,10.616597 -0.014,0.38389 1.34116,0.21514 3.01137,-0.375 3.77205,-1.33278 7.81601,0.24863 7.81601,3.05649 0,1.057296 -1.9979,4.616206 -4.43977,7.908696 -4.32883,5.83674 -5.35586,8.21184 -3.5509,8.21184 1.21015,0 11.86403,-8.19862 14.8223,-11.40641 2.3409,-2.53833 5.00775,-3.45482 5.00775,-1.72096 0,1.3324 -8.3177,8.81028 -13.51737,12.15255 -5.05484,3.24917 -9.2376,3.80794 -11.13737,1.48781 -1.76223,-2.15216 -0.59352,-5.50973 3.91603,-11.25034 4.29986,-5.473656 4.63744,-6.262656 2.67949,-6.262656 -2.8213,0 -10.73982,6.241646 -15.04169,11.856396 -3.47113,4.53045 -5.29354,6.05522 -7.6775,6.42357 -3.92147,0.60591 -4.35877,0.20575 -2.29773,-2.10257 2.80737,-3.14419 1.8346,-3.17521 -3.88826,-0.12397 -3.03961,1.62062 -7.00368,2.94658 -8.80906,2.94658 -3.60167,0 -6.79422,-2.47221 -5.97768,-4.62894 0.721,-1.90439 0.2715,-1.77548 -5.68006,1.62894 -5.87137,3.35855 -9.04522,3.74984 -11.57725,1.4273 -1.56015,-1.43107 -1.99453,-1.42596 -4.82344,0.0568 -1.72088,0.90197 -4.73424,1.49251 -6.74937,1.3227 -3.26709,-0.27532 -3.67093,-0.6232 -3.93751,-3.39195 -0.1808,-1.87803 0.30174,-3.58886 1.23327,-4.37245 2.46272,-2.0716 1.82064,-2.74911 -3.1427,-3.31614 -4.45057,-0.50846 -4.82499,-0.3539 -7.86595,3.24697 -5.3969,6.39061 -15.399897,9.81939 -20.266001,6.94669 z m 9.826661,-2.8846 c 3.6921,-2.28172 7.99354,-8.44777 8.39368,-12.03218 0.21869,-1.959076 -0.21906,-2.568786 -2.03302,-2.831646 -1.69579,-0.24573 -3.46499,0.88495 -6.64008,4.243616 -4.370344,4.62302 -6.041176,8.32782 -4.998196,11.08267 0.740662,1.95631 1.466712,1.89269 5.277616,-0.46246 z m 212.9821,2.84476 c 11.21373,-15.0492 15.40596,-19.669366 18.39785,-20.275866 1.76651,-0.35809 3.34139,-0.25713 3.49974,0.22435 0.15835,0.48149 2.06765,0.39395 4.24291,-0.19454 2.80925,-0.76 4.44298,-0.75996 5.63949,1.4e-4 3.00483,1.90887 2.44607,4.848476 -1.96641,10.345346 -5.99543,7.46882 -6.22854,7.84037 -5.428,8.65177 1.25046,1.26743 7.09498,-2.26387 13.1486,-7.94448 9.14975,-8.585986 22.32488,-14.323046 24.54213,-10.686786 0.33537,0.55 0.97271,1 1.41631,1 0.4436,0 4.52418,-4.92679 9.06796,-10.948419 7.52532,-9.972911 8.5523,-10.953014 11.52614,-11 3.97495,-0.0628 4.82491,-1.555017 -10.50818,18.448419 -14.04546,18.323616 -15.44149,20.340646 -14.64029,21.152706 1.00023,1.0138 8.85582,-4.28282 13.45629,-9.07288 4.37928,-4.55979 5.96092,-5.50367 5.96092,-3.55736 0,1.62946 -10.00278,10.94307 -14.01996,13.05402 -4.46841,2.34806 -8.55254,2.47163 -10.11485,0.30604 -1.07491,-1.48997 -1.41017,-1.48997 -4.2529,0 -5.80544,3.04284 -12.0635,1.70313 -12.0635,-2.58252 0,-2.34404 -0.10771,-2.3209 -5.58528,1.2 -6.99276,4.49484 -13.16041,3.79168 -13.16041,-1.50038 0,-1.15521 2.21989,-4.62483 4.93308,-7.71027 5.35588,-6.090686 5.70719,-6.789356 3.41384,-6.789356 -3.35722,0 -9.43105,4.283286 -15.38457,10.849276 -4.5925,5.06495 -7.205,7.12725 -9.71544,7.66935 -2.83086,0.61129 -3.25324,0.49916 -2.40547,-0.63856 z m 51.13812,-4.38586 c 7.01653,-4.82615 11.32881,-11.70443 8.46336,-13.499406 -2.24544,-1.40659 -6.77967,1.07793 -11.331,6.208776 -7.2311,8.15185 -5.34733,12.94109 2.86764,7.29063 z M 122.0138,93.202834 c 5.33783,-8.06811 15.75509,-28.675485 14.92241,-29.519463 -0.68338,-0.692651 -14.63961,13.51359 -22.81847,23.227243 -3.12178,3.70759 -5.42011,5.6406 -6.15743,5.17873 -1.30853,-0.81969 15.90876,-20.329036 25.99231,-29.452556 3.32263,-3.006296 7.19139,-7.753425 8.81408,-10.81524 1.59066,-3.001403 4.5875,-7.409291 6.65965,-9.795306 2.07214,-2.386016 3.76753,-4.59701 3.76753,-4.913321 0,-0.750844 -4.63202,1.277737 -8.38623,3.672727 -1.74456,1.112941 -0.61167,-0.40675 2.7592,-3.701244 3.14546,-3.07421 5.48533,-5.589472 5.19969,-5.589472 -0.97479,0 -8.93553,3.253805 -14.37189,5.874238 -7.87828,3.797493 -7.91507,3.764259 -1.97323,-1.782991 2.98451,-2.786315 8.51409,-6.615015 12.28794,-8.508223 6.48623,-3.25391 6.71266,-3.480072 4.13961,-4.134629 -1.49707,-0.380838 -5.02874,-0.474251 -7.84817,-0.207586 l -5.12622,0.484847 4.43976,-1.933223 c 6.61233,-2.879228 9.11606,-3.136933 13.29261,-1.368186 4.55936,1.930869 5.85727,1.160867 2.47849,-1.470404 -3.03534,-2.363816 -2.21185,-2.440522 3.09508,-0.288299 3.6797,1.492296 4.22203,1.505946 5.21379,0.131226 1.42829,-1.979806 6.57009,-3.077692 8.47833,-1.810308 0.98927,0.657047 1.07105,0.987989 0.24665,0.998225 -0.6783,0.0084 -1.23327,0.456704 -1.23327,0.996183 0,0.578237 1.9237,0.762265 4.68642,0.448316 l 4.68642,-0.532552 -3.45315,1.725381 c -3.28134,1.639537 -3.33475,1.746133 -1.07333,2.142477 1.83747,0.322042 2.06231,0.620811 0.98662,1.31099 -0.93629,0.600725 0.10426,0.898915 3.17272,0.909205 4.42901,0.01485 12.45903,2.592713 11.40479,3.661256 -0.28694,0.290829 -3.02588,0.0019 -6.08655,-0.64215 -6.91323,-1.454653 -10.8508,-0.352115 -4.9511,1.386333 3.26602,0.962389 4.00222,1.652711 4.26983,4.003766 0.3196,2.807824 0.3875,2.835482 5.83694,2.377441 4.09435,-0.344142 5.95653,-1.01787 7.23439,-2.617382 0.94645,-1.184673 2.84439,-2.153951 4.21764,-2.153951 1.37325,0 2.76316,-0.436807 3.0887,-0.970683 0.73899,-1.211944 -3.77635,-2.433683 -6.41232,-1.735011 -4.29344,1.137993 -0.55984,-1.322963 4.42184,-2.914607 4.96708,-1.586972 5.49169,-1.589678 7.8246,-0.04036 1.3753,0.913363 2.73817,1.66066 3.02858,1.66066 1.04667,0 0.49134,-2.920907 -1.41015,-7.417095 -1.066,-2.520597 -1.60007,-4.582904 -1.18685,-4.582904 1.46028,0 8.05809,7.608245 8.05809,9.292163 0,2.372892 1.55286,2.132148 3.49711,-0.542163 1.60596,-2.209021 1.62413,-2.181701 0.99785,1.5 -0.43171,2.537833 -0.27042,3.75 0.49897,3.75 0.64133,0 0.87028,0.704158 0.52525,1.615483 -0.5278,1.394103 0.0324,1.535188 4.08756,1.02955 4.64511,-0.579191 4.66512,-0.569533 1.73933,0.839413 -1.62791,0.78394 -2.40487,1.445643 -1.72657,1.47045 1.7399,0.06363 1.54437,2.045104 -0.20182,2.045104 -0.98473,0 -0.66926,0.776197 1.00531,2.47348 1.87683,1.902305 2.31918,3.170672 1.91558,5.492681 -0.57019,3.280411 -3.76567,9.636787 -6.04967,12.033839 -1.25255,1.314565 -1.36604,0.855417 -0.91791,-3.714087 0.28123,-2.867748 0.0985,-6.242748 -0.40622,-7.5 l -0.91756,-2.285913 -0.65875,2.25 c -0.36231,1.2375 -1.05095,2.25 -1.5303,2.25 -0.47934,0 -0.87154,0.741154 -0.87154,1.647008 0,1.337754 -3.39787,6.327589 -7.9836,11.724076 -0.40712,0.479097 -0.49481,-0.983403 -0.19487,-3.25 0.29995,-2.266596 0.25664,-4.121084 -0.0962,-4.121084 -0.35289,0 -3.16587,2.008095 -6.2511,4.462434 -3.08522,2.454338 -5.77118,4.298558 -5.96879,4.098264 -0.19762,-0.200293 1.19225,-2.424386 3.08859,-4.942429 1.89634,-2.518044 3.73253,-5.487263 4.08043,-6.598265 0.3479,-1.111002 0.99482,-2.020004 1.43761,-2.020004 0.44278,0 1.03725,-0.9 1.32106,-2 0.68604,-2.658969 0.17535,-2.538308 -4.23233,1 -5.73601,4.604641 -6.58033,3.739397 -2.41777,-2.477695 3.06205,-4.573395 2.54965,-5.465737 -1.47188,-2.563302 -3.92317,2.831442 -3.85545,1.513375 0.13674,-2.661396 l 3.15338,-3.297607 h -2.44055 c -1.3423,0 -3.4273,0.700517 -4.63331,1.556704 -1.22906,0.872545 -2.19276,1.092291 -2.19276,0.5 0,-1.189991 -7.7658,-1.426224 -9.52777,-0.289833 -0.62785,0.404936 -1.58675,2.310545 -2.1309,4.234688 -0.93461,3.304844 -0.99428,3.344525 -1.07834,0.717056 -0.0988,-3.088023 -2.46092,-4.584259 -4.83797,-3.064507 -0.83652,0.534821 -2.06155,2.743937 -2.7223,4.909147 l -1.20134,3.936745 -0.10346,-3.75 c -0.0569,-2.0625 -0.51852,-3.75 -1.02583,-3.75 -3.08419,0 -6.14511,2.611326 -9.89022,8.437533 -2.34118,3.642132 -4.43332,6.443039 -4.64919,6.224239 -0.21587,-0.218801 0.0419,-2.357508 0.57288,-4.752681 0.53095,-2.395174 0.75975,-4.56327 0.50844,-4.817993 -0.583,-0.590911 -8.99756,3.936254 -16.90846,9.097015 -5.87278,3.83118 -6.25976,4.341695 -9.21411,12.155512 -3.5906,9.496633 -11.82704,25.362067 -15.40229,29.668647 -4.58368,5.521296 -5.23331,3.204976 -0.92673,-3.30437 z m 28.36605,-42.501161 c 3.44695,-2.086293 8.09029,-4.60048 10.31853,-5.587081 2.78879,-1.234795 4.56991,-2.896006 5.71532,-5.330547 0.91518,-1.945199 1.41365,-3.790447 1.1077,-4.100551 -0.30596,-0.310104 -2.53864,1.408099 -4.96151,3.818229 l -4.40522,4.382055 0.89467,-3.161852 c 0.49206,-1.739019 1.178,-3.626509 1.52429,-4.194423 1.24538,-2.042414 -2.35922,-0.978041 -5.3627,1.583505 -2.87931,2.455653 -11.8832,14.397679 -11.8832,15.760915 0,1.019359 0.50569,0.792027 7.05212,-3.17025 z m 72.86369,-5.265758 c 0,-0.517541 -0.44398,-0.940983 -0.98662,-0.940983 -0.54264,0 -0.98661,0.701558 -0.98661,1.559017 0,0.857459 0.44397,1.280902 0.98661,0.940983 0.54264,-0.339919 0.98662,-1.041476 0.98662,-1.559017 z m -47.38609,-6.901923 c 0.79824,-0.511673 1.07044,-1.292282 0.60488,-1.734687 -0.46554,-0.442405 -1.04558,-0.239069 -1.28895,0.451858 -0.24338,0.690926 -0.84857,1.001869 -1.34486,0.690983 -0.49628,-0.310887 -0.90234,-0.08869 -0.90234,0.493769 0,1.296207 1.00942,1.329981 2.93127,0.09808 z m 9.60666,-2.661735 c 0.20281,-0.617472 -0.62897,-1.387123 -1.8484,-1.710337 -2.67415,-0.708793 -3.23823,-0.275819 -2.42817,1.86379 0.66725,1.762444 3.6828,1.654239 4.27657,-0.153453 z m 23.69961,-1.981492 c -0.32785,-0.332291 -1.1788,-0.367818 -1.89101,-0.07895 -0.78705,0.319226 -0.55328,0.556183 0.59608,0.604167 1.04005,0.04342 1.62278,-0.192928 1.29493,-0.52522 z"
       id="path1" />
  </g>
  <metadata
     id="metadata1">
    <rdf:RDF>
      <cc:Work
         rdf:about="">
        <dc:title>Original Logo Transparent</dc:title>
      </cc:Work>
    </rdf:RDF>
  </metadata>
</svg>
